<svg width="34" height="26" viewBox="0 0 34 26" fill="none" xmlns="http://www.w3.org/2000/svg">
<path d="M28.5689 15.0714C28.5689 15.0312 28.5689 14.9911 28.5488 14.9509L16.9975 5.42857L5.44615 14.9509C5.44615 14.9911 5.42606 15.0312 5.42606 15.0714V24.7143C5.42606 25.4174 6.00865 26 6.71177 26H14.4261V18.2857H19.5689V26H27.2832C27.9863 26 28.5689 25.4174 28.5689 24.7143V15.0714ZM33.0488 13.6853C33.2698 13.4241 33.2296 13.0022 32.9685 12.7812L28.5689 9.125V0.928571C28.5689 0.566964 28.2877 0.285714 27.9261 0.285714H24.0689C23.7073 0.285714 23.4261 0.566964 23.4261 0.928571V4.84598L18.5243 0.747766C17.6805 0.044641 16.3145 0.044641 15.4707 0.747766L1.02651 12.7812C0.765346 13.0022 0.725167 13.4241 0.94615 13.6853L2.19169 15.1719C2.29213 15.2924 2.45285 15.3728 2.61356 15.3929C2.79436 15.4129 2.95508 15.3527 3.0957 15.2522L16.9975 3.66071L30.8993 15.2522C31.0198 15.3527 31.1604 15.3929 31.3212 15.3929C31.3412 15.3929 31.3613 15.3929 31.3814 15.3929C31.5421 15.3728 31.7028 15.2924 31.8033 15.1719L33.0488 13.6853Z" fill="white"/>
</svg>
